<svg width="44" height="44" viewBox="20 20 44 34" fill="none"
  xmlns="http://www.w3.org/2000/svg">
  <g filter="url(#filter0_d_8920_51377)">
    <path d="M41.7559 17C53.2191 17 62.5124 26.2927 62.5127 37.7559C62.5127 49.2193 53.2193 58.5127 41.7559 58.5127C30.2927 58.5124 21 49.2191 21 37.7559C21.0003 26.2928 30.2928 17.0003 41.7559 17Z" fill="#00493E" stroke="white" stroke-width="2"/>
    <path d="M50.5326 34.9306C50.5326 32.4911 49.5439 30.2857 47.941 28.6828L44.4251 32.0524C45.209 32.7602 45.6946 33.7781 45.6946 34.9248C45.6946 37.1068 43.9279 38.8092 41.7516 38.8092C39.5754 38.8092 37.8087 37.1068 37.8087 34.9248C37.8087 32.7427 39.5754 31.0286 41.7516 31.0286C41.8043 31.0286 41.8569 31.0286 41.9037 31.0286L41.9154 32.7134L46.9874 28.0393L41.8569 24.4824L41.8686 26.1146C41.8277 26.1146 41.7926 26.1146 41.7516 26.1146C36.9136 26.1146 32.9766 30.0692 32.9766 34.9248V48.4618H37.8087V43.7993C40.137 46.1159 44.1619 49.0585 49.6316 49.0585H49.9651V44.2029C47.8123 44.2029 45.835 43.5945 44.1619 42.7872C47.8357 41.8922 50.5326 38.9496 50.5326 34.9306Z" fill="#DFD2BA"/>
  </g>
</svg>
