<svg width="21" height="21" viewBox="0 0 21 21" fill="none" xmlns="http://www.w3.org/2000/svg">
<rect width="21" height="21" rx="10.5" fill="black"/>
<g clip-path="url(#clip0_7658_49339)">
<path d="M10.5002 14.1498C11.4002 13.3198 12.1002 12.6498 12.6002 12.1498C13.1002 11.6498 13.4902 11.2298 13.7802 10.8998C14.0502 10.5698 14.2302 10.2598 14.3402 9.96984C14.4502 9.67984 14.5002 9.37984 14.5002 9.03984C14.5002 8.43984 14.2802 7.91984 13.8502 7.48984C13.4202 7.05984 12.9002 6.83984 12.3002 6.83984C11.9502 6.83984 11.6102 6.90984 11.2902 7.04984C10.9702 7.18984 10.7002 7.38984 10.5002 7.63984C10.3002 7.38984 10.0402 7.18984 9.72023 7.04984C9.40023 6.90984 9.06023 6.83984 8.69023 6.83984C8.09023 6.83984 7.57023 7.05984 7.14023 7.48984C6.71023 7.91984 6.49023 8.43984 6.49023 9.03984C6.49023 9.38984 6.54023 9.69984 6.64023 9.96984C6.74023 10.2398 6.92023 10.5398 7.19023 10.8698C7.47023 11.1998 7.86023 11.6198 8.34023 12.1198C8.82023 12.6198 9.54023 13.2998 10.4902 14.1498H10.5002Z" fill="white"/>
</g>
<defs>
<clipPath id="clip0_7658_49339">
<rect width="8" height="7.3" fill="white" transform="translate(6.5 6.84961)"/>
</clipPath>
</defs>
</svg>
